<svg width="1254" height="90" viewBox="0 0 1254 90" fill="none" xmlns="http://www.w3.org/2000/svg">
<path d="M1182.81 88.0625V2.1875H1190.62V80.75H1253.38V88.0625H1182.81Z" fill="white"/>
<path d="M1152.88 83.5625C1149.38 84.6458 1146.12 85.5833 1143.12 86.375C1140.12 87.125 1137.17 87.7292 1134.25 88.1875C1131.33 88.6875 1128.35 89.0417 1125.31 89.25C1122.31 89.5 1119 89.625 1115.38 89.625C1106.96 89.625 1099.35 88.6042 1092.56 86.5625C1085.77 84.5208 1079.98 81.6042 1075.19 77.8125C1070.44 73.9792 1066.77 69.3542 1064.19 63.9375C1061.6 58.5208 1060.31 52.4375 1060.31 45.6875C1060.31 39.1458 1061.54 33.1458 1064 27.6875C1066.5 22.2292 1069.98 17.5417 1074.44 13.625C1078.9 9.70833 1084.23 6.66667 1090.44 4.5C1096.65 2.33333 1103.5 1.25 1111 1.25C1118.79 1.25 1125.73 2.29167 1131.81 4.375C1137.9 6.45833 1143.02 9.4375 1147.19 13.3125C1151.35 17.1875 1154.52 21.8958 1156.69 27.4375C1158.85 32.9375 1159.94 39.1458 1159.94 46.0625V48H1068.38C1068.83 53.3333 1070.17 58.1458 1072.38 62.4375C1074.58 66.7292 1077.71 70.375 1081.75 73.375C1085.83 76.375 1090.83 78.6875 1096.75 80.3125C1102.71 81.8958 1109.65 82.6875 1117.56 82.6875C1120.94 82.6875 1124.35 82.4583 1127.81 82C1131.27 81.5417 1134.58 80.9375 1137.75 80.1875C1140.92 79.3958 1143.81 78.5208 1146.44 77.5625C1149.06 76.5625 1151.21 75.5417 1152.88 74.5V83.5625ZM1152.25 41.1875C1151.96 36.8125 1150.98 32.6458 1149.31 28.6875C1147.65 24.6875 1145.15 21.1667 1141.81 18.125C1138.52 15.0833 1134.31 12.6667 1129.19 10.875C1124.1 9.08333 1118 8.1875 1110.88 8.1875C1104.17 8.1875 1098.29 9.08333 1093.25 10.875C1088.21 12.6667 1083.94 15.0833 1080.44 18.125C1076.94 21.125 1074.19 24.625 1072.19 28.625C1070.19 32.5833 1068.92 36.7708 1068.38 41.1875H1152.25Z" fill="white"/>
<path d="M1005.12 88.0625H993.438L950.562 2.1875H959.312L999.5 82.6875L1039.69 2.1875H1048.38L1005.12 88.0625Z" fill="white"/>
<path d="M925.562 88.0625V78.5625C922.562 80.1875 919.146 81.6875 915.312 83.0625C911.521 84.4375 907.5 85.625 903.25 86.625C899.042 87.625 894.708 88.3958 890.25 88.9375C885.792 89.4792 881.417 89.75 877.125 89.75C871.542 89.75 866.521 89.25 862.062 88.25C857.646 87.25 853.896 85.7708 850.812 83.8125C847.729 81.8125 845.354 79.3542 843.688 76.4375C842.021 73.4792 841.188 70.0625 841.188 66.1875C841.188 62.3542 842.146 58.9792 844.062 56.0625C846.021 53.1042 848.792 50.5417 852.375 48.375C855.958 46.1667 860.271 44.3125 865.312 42.8125C870.396 41.2708 876.062 39.9792 882.312 38.9375C888.562 37.8542 895.312 36.9792 902.562 36.3125C909.854 35.6042 917.521 35.0208 925.562 34.5625V28C925.562 25.3333 925.062 22.9792 924.062 20.9375C923.062 18.8958 921.667 17.125 919.875 15.625C918.083 14.0833 915.979 12.8125 913.562 11.8125C911.146 10.7708 908.521 9.9375 905.688 9.3125C902.896 8.6875 899.938 8.25 896.812 8C893.729 7.70833 890.625 7.5625 887.5 7.5625C883.292 7.5625 879.458 7.77083 876 8.1875C872.542 8.60417 869.312 9.1875 866.312 9.9375C863.312 10.6458 860.438 11.4792 857.688 12.4375C854.938 13.3958 852.167 14.4167 849.375 15.5V6.375C855.167 4.83333 861.333 3.5 867.875 2.375C874.458 1.20833 881.438 0.625 888.812 0.625C895.062 0.625 900.896 1.16667 906.312 2.25C911.729 3.29167 916.438 4.97917 920.438 7.3125C924.438 9.64583 927.583 12.6667 929.875 16.375C932.167 20.0417 933.312 24.5208 933.312 29.8125V88.0625H925.562ZM925.562 41.5C911.938 42.25 900.292 43.3125 890.625 44.6875C881 46.0625 873.125 47.75 867 49.75C860.875 51.75 856.375 54.0833 853.5 56.75C850.667 59.4167 849.25 62.4375 849.25 65.8125C849.25 68.5625 849.938 71 851.312 73.125C852.729 75.25 854.75 77.0417 857.375 78.5C860 79.9167 863.188 81 866.938 81.75C870.688 82.4583 874.896 82.8125 879.562 82.8125C882.312 82.8125 885.146 82.6667 888.062 82.375C891.021 82.0417 893.958 81.6042 896.875 81.0625C899.792 80.4792 902.667 79.8125 905.5 79.0625C908.333 78.2708 911 77.4167 913.5 76.5C916 75.5833 918.271 74.6042 920.312 73.5625C922.396 72.5208 924.146 71.4583 925.562 70.375V41.5Z" fill="white"/>
<path d="M833.312 8.8125C832.104 8.4375 830.417 8.04167 828.25 7.625C826.125 7.16667 823.375 6.9375 820 6.9375C815.333 6.9375 810.938 7.52083 806.812 8.6875C802.729 9.8125 798.917 11.3542 795.375 13.3125C791.875 15.2708 788.625 17.5625 785.625 20.1875C782.625 22.7708 779.917 25.5208 777.5 28.4375V88.0625H769.688V2.1875H777.5V19.6875C780.292 16.8125 783.312 14.1667 786.562 11.75C789.854 9.33333 793.312 7.27083 796.938 5.5625C800.562 3.8125 804.354 2.45833 808.312 1.5C812.312 0.5 816.438 0 820.688 0C822.146 0 823.458 0.0416667 824.625 0.125C825.792 0.166667 826.854 0.25 827.812 0.375C828.812 0.458333 829.75 0.5625 830.625 0.6875C831.5 0.8125 832.396 0.958333 833.312 1.125V8.8125Z" fill="white"/>
<path d="M713.75 9.3125V88.0625H706V9.3125H666.938V2.1875H752.812V9.3125H713.75Z" fill="white"/>
<path d="M634.375 88.0625V65.5625H658.062V88.0625H634.375Z" fill="white"/>
<path d="M591.75 88.0625V39.9375C591.75 36.7292 591.479 33.8333 590.938 31.25C590.396 28.625 589.375 26.3958 587.875 24.5625C586.417 22.6875 584.354 21.25 581.688 20.25C579.062 19.2083 575.667 18.6875 571.5 18.6875C568.333 18.6875 565 19.125 561.5 20C558.042 20.8333 554.604 21.9583 551.188 23.375C547.771 24.7917 544.5 26.4375 541.375 28.3125C538.292 30.1875 535.542 32.1458 533.125 34.1875V88.0625H509.938V2.1875H533.125V13.9375C536.042 12.2708 539.146 10.625 542.438 9C545.729 7.33333 549.229 5.83333 552.938 4.5C556.646 3.16667 560.583 2.08333 564.75 1.25C568.917 0.416667 573.312 0 577.938 0C583.729 0 588.896 0.708333 593.438 2.125C598.021 3.5 601.896 5.47917 605.062 8.0625C608.229 10.6042 610.646 13.7083 612.312 17.375C614.021 21 614.875 25.0625 614.875 29.5625V88.0625H591.75Z" fill="white"/>
<path d="M459.812 88.0625V2.1875H483V88.0625H459.812Z" fill="white"/>
<path d="M355.312 88.0625V2.1875H378.5V69.25H441.188V88.0625H355.312Z" fill="white"/>
<path d="M250.812 88.0625V2.1875H274V69.25H336.688V88.0625H250.812Z" fill="white"/>
<path d="M201.125 88.0625V79.625C198.167 81.25 194.979 82.6875 191.562 83.9375C188.188 85.1875 184.667 86.25 181 87.125C177.333 88 173.542 88.6458 169.625 89.0625C165.75 89.5208 161.833 89.75 157.875 89.75C153.25 89.75 148.771 89.3125 144.438 88.4375C140.146 87.5625 136.333 86.1458 133 84.1875C129.667 82.2292 126.979 79.6667 124.938 76.5C122.938 73.3333 121.938 69.4583 121.938 64.875C121.938 59.0833 123.521 54.2708 126.688 50.4375C129.854 46.5625 134.688 43.3958 141.188 40.9375C147.688 38.4792 155.896 36.5833 165.812 35.25C175.771 33.9167 187.542 32.875 201.125 32.125V30.3125C201.125 28.8958 200.75 27.5 200 26.125C199.25 24.7083 197.875 23.4792 195.875 22.4375C193.917 21.3542 191.208 20.4792 187.75 19.8125C184.333 19.1458 179.958 18.8125 174.625 18.8125C170.417 18.8125 166.25 19.0417 162.125 19.5C158.042 19.9167 154.083 20.5 150.25 21.25C146.458 22 142.854 22.875 139.438 23.875C136.021 24.875 132.917 25.9167 130.125 27V6.375C133.042 5.625 136.312 4.89583 139.938 4.1875C143.562 3.47917 147.333 2.875 151.25 2.375C155.167 1.83333 159.125 1.41667 163.125 1.125C167.125 0.791667 170.958 0.625 174.625 0.625C181.833 0.625 188.479 1.22917 194.562 2.4375C200.646 3.60417 205.875 5.4375 210.25 7.9375C214.667 10.4375 218.104 13.6042 220.562 17.4375C223.062 21.2708 224.312 25.8333 224.312 31.125V88.0625H201.125ZM201.125 48.875C192.208 49.2083 184.625 49.6875 178.375 50.3125C172.167 50.9375 167 51.6667 162.875 52.5C158.75 53.3333 155.5 54.2292 153.125 55.1875C150.792 56.1458 149.042 57.125 147.875 58.125C146.708 59.125 145.979 60.125 145.688 61.125C145.438 62.125 145.312 63.0417 145.312 63.875C145.312 64.875 145.583 65.8542 146.125 66.8125C146.667 67.7292 147.604 68.5417 148.938 69.25C150.312 69.9583 152.125 70.5208 154.375 70.9375C156.625 71.3542 159.458 71.5625 162.875 71.5625C166.667 71.5625 170.375 71.2708 174 70.6875C177.625 70.1042 181.062 69.3125 184.312 68.3125C187.562 67.2708 190.604 66.0625 193.438 64.6875C196.312 63.2708 198.875 61.7708 201.125 60.1875V48.875Z" fill="white"/>
<path d="M70.4375 88.0625H43.4375L0 2.1875H25.875L57.125 66.8125L88.3125 2.1875H114.188L70.4375 88.0625Z" fill="white"/>
</svg>
