<svg width="1246" height="91" viewBox="0 0 1246 91" fill="none" xmlns="http://www.w3.org/2000/svg">
<path d="M1246 45.1875C1246 52.8958 1244.6 59.5625 1241.81 65.1875C1239.02 70.7708 1235.19 75.3958 1230.31 79.0625C1225.44 82.6875 1219.69 85.375 1213.06 87.125C1206.44 88.875 1199.29 89.75 1191.62 89.75C1183.92 89.75 1176.73 88.875 1170.06 87.125C1163.4 85.375 1157.6 82.6875 1152.69 79.0625C1147.77 75.3958 1143.92 70.7708 1141.12 65.1875C1138.33 59.5625 1136.94 52.8958 1136.94 45.1875C1136.94 40.0625 1137.58 35.4167 1138.88 31.25C1140.17 27.0417 1141.98 23.2917 1144.31 20C1146.65 16.6667 1149.46 13.7917 1152.75 11.375C1156.08 8.95833 1159.77 6.95833 1163.81 5.375C1167.9 3.75 1172.27 2.5625 1176.94 1.8125C1181.6 1.02083 1186.5 0.625 1191.62 0.625C1199.29 0.625 1206.44 1.5 1213.06 3.25C1219.69 5 1225.44 7.70833 1230.31 11.375C1235.19 15 1239.02 19.625 1241.81 25.25C1244.6 30.8333 1246 37.4792 1246 45.1875ZM1237.94 45.1875C1237.94 39.1042 1236.94 33.7292 1234.94 29.0625C1232.98 24.3958 1230.06 20.4792 1226.19 17.3125C1222.31 14.1042 1217.48 11.6875 1211.69 10.0625C1205.94 8.39583 1199.25 7.5625 1191.62 7.5625C1184 7.5625 1177.27 8.39583 1171.44 10.0625C1165.65 11.7292 1160.79 14.1667 1156.88 17.375C1152.96 20.5417 1150 24.4792 1148 29.1875C1146 33.8542 1145 39.1875 1145 45.1875C1145 51.2708 1146 56.6458 1148 61.3125C1150 65.9792 1152.96 69.9167 1156.88 73.125C1160.79 76.2917 1165.65 78.7083 1171.44 80.375C1177.27 82 1184 82.8125 1191.62 82.8125C1199.25 82.8125 1205.94 82 1211.69 80.375C1217.48 78.7083 1222.31 76.2917 1226.19 73.125C1230.06 69.9167 1232.98 65.9792 1234.94 61.3125C1236.94 56.6458 1237.94 51.2708 1237.94 45.1875Z" fill="black"/>
<path d="M1106.19 88.0625V2.1875H1114V88.0625H1106.19Z" fill="black"/>
<path d="M1083.44 45.0625C1083.44 50.5625 1082.85 55.4583 1081.69 59.75C1080.56 64 1078.96 67.7083 1076.88 70.875C1074.79 74.0417 1072.25 76.7292 1069.25 78.9375C1066.29 81.1458 1062.98 82.9167 1059.31 84.25C1055.69 85.5833 1051.73 86.5625 1047.44 87.1875C1043.19 87.7708 1038.71 88.0625 1034 88.0625H989.688V2.1875H1033.88C1040.92 2.1875 1047.46 2.875 1053.5 4.25C1059.54 5.625 1064.77 7.97917 1069.19 11.3125C1073.65 14.6042 1077.12 19 1079.62 24.5C1082.17 30 1083.44 36.8542 1083.44 45.0625ZM1075.38 45.0625C1075.38 40.3958 1074.92 36.2708 1074 32.6875C1073.08 29.1042 1071.77 26 1070.06 23.375C1068.35 20.7083 1066.27 18.4792 1063.81 16.6875C1061.35 14.8958 1058.58 13.4583 1055.5 12.375C1052.42 11.25 1049.06 10.4583 1045.44 10C1041.81 9.54167 1037.96 9.3125 1033.88 9.3125H997.5V80.875H1033.88C1040 80.875 1045.6 80.3333 1050.69 79.25C1055.77 78.125 1060.12 76.2083 1063.75 73.5C1067.42 70.75 1070.27 67.0833 1072.31 62.5C1074.35 57.875 1075.38 52.0625 1075.38 45.0625Z" fill="black"/>
<path d="M878 2.1875V58.875C877.958 63.6667 878.562 67.6042 879.812 70.6875C881.062 73.7708 882.854 76.2083 885.188 78C887.562 79.75 890.417 80.9792 893.75 81.6875C897.125 82.3542 900.917 82.6875 905.125 82.6875C910 82.6875 914.771 82.1042 919.438 80.9375C924.104 79.7292 928.5 78.2292 932.625 76.4375C936.75 74.6042 940.521 72.5833 943.938 70.375C947.396 68.1667 950.333 66.0417 952.75 64V2.1875H960.688V88.0625H952.75V72.9375C949.833 74.8125 946.646 76.7708 943.188 78.8125C939.729 80.8125 935.979 82.6667 931.938 84.375C927.938 86.0417 923.646 87.4167 919.062 88.5C914.479 89.5833 909.625 90.125 904.5 90.125C898.708 90.125 893.646 89.3958 889.312 87.9375C885.021 86.4792 881.438 84.4375 878.562 81.8125C875.729 79.1875 873.604 76.0833 872.188 72.5C870.771 68.875 870.062 64.8958 870.062 60.5625V2.1875H878Z" fill="black"/>
<path d="M814.5 9.3125V88.0625H806.75V9.3125H767.688V2.1875H853.562V9.3125H814.5Z" fill="black"/>
<path d="M748.312 14.875C746.688 14.0833 744.812 13.25 742.688 12.375C740.562 11.4583 738.125 10.6458 735.375 9.9375C732.667 9.22917 729.604 8.64583 726.188 8.1875C722.771 7.6875 718.979 7.4375 714.812 7.4375C709.771 7.4375 705.271 7.72917 701.312 8.3125C697.396 8.89583 694.062 9.8125 691.312 11.0625C688.604 12.2708 686.521 13.8125 685.062 15.6875C683.646 17.5625 682.938 19.7917 682.938 22.375C682.938 24.5417 683.604 26.4375 684.938 28.0625C686.312 29.6875 688.146 31.125 690.438 32.375C692.771 33.625 695.479 34.7708 698.562 35.8125C701.688 36.8125 704.979 37.7708 708.438 38.6875C711.938 39.5625 715.521 40.4583 719.188 41.375C722.896 42.2917 726.479 43.2917 729.938 44.375C733.438 45.4167 736.729 46.6042 739.812 47.9375C742.938 49.2292 745.646 50.75 747.938 52.5C750.271 54.25 752.104 56.25 753.438 58.5C754.812 60.75 755.5 63.3542 755.5 66.3125C755.5 69.5208 754.896 72.3333 753.688 74.75C752.479 77.125 750.833 79.1875 748.75 80.9375C746.708 82.6458 744.292 84.0833 741.5 85.25C738.75 86.375 735.792 87.2708 732.625 87.9375C729.5 88.6042 726.25 89.0625 722.875 89.3125C719.542 89.6042 716.25 89.75 713 89.75C705.542 89.75 698.771 89.2083 692.688 88.125C686.646 87.0417 680.875 85.5625 675.375 83.6875V74.125C681.042 77.5 687.021 79.8125 693.312 81.0625C699.646 82.3125 706.292 82.9375 713.25 82.9375C718.167 82.9375 722.708 82.6458 726.875 82.0625C731.042 81.4792 734.646 80.5625 737.688 79.3125C740.729 78.0208 743.083 76.3542 744.75 74.3125C746.458 72.2708 747.312 69.7708 747.312 66.8125C747.312 64.4375 746.625 62.3542 745.25 60.5625C743.917 58.7708 742.083 57.2083 739.75 55.875C737.458 54.5 734.75 53.2917 731.625 52.25C728.542 51.2083 725.271 50.25 721.812 49.375C718.354 48.4583 714.771 47.5833 711.062 46.75C707.396 45.875 703.833 44.9375 700.375 43.9375C696.917 42.9375 693.625 41.8125 690.5 40.5625C687.417 39.3125 684.708 37.8542 682.375 36.1875C680.083 34.4792 678.25 32.5208 676.875 30.3125C675.542 28.1042 674.875 25.5417 674.875 22.625C674.875 19.75 675.417 17.2083 676.5 15C677.583 12.75 679.062 10.8125 680.938 9.1875C682.854 7.5625 685.083 6.20833 687.625 5.125C690.167 4 692.875 3.125 695.75 2.5C698.667 1.83333 701.688 1.35417 704.812 1.0625C707.938 0.770833 711.021 0.625 714.062 0.625C717.396 0.625 720.542 0.770833 723.5 1.0625C726.5 1.35417 729.375 1.75 732.125 2.25C734.917 2.70833 737.625 3.25 740.25 3.875C742.917 4.5 745.604 5.16667 748.312 5.875V14.875Z" fill="black"/>
<path d="M634.375 88.0625V65.5625H658.062V88.0625H634.375Z" fill="black"/>
<path d="M591.75 88.0625V39.9375C591.75 36.7292 591.479 33.8333 590.938 31.25C590.396 28.625 589.375 26.3958 587.875 24.5625C586.417 22.6875 584.354 21.25 581.688 20.25C579.062 19.2083 575.667 18.6875 571.5 18.6875C568.333 18.6875 565 19.125 561.5 20C558.042 20.8333 554.604 21.9583 551.188 23.375C547.771 24.7917 544.5 26.4375 541.375 28.3125C538.292 30.1875 535.542 32.1458 533.125 34.1875V88.0625H509.938V2.1875H533.125V13.9375C536.042 12.2708 539.146 10.625 542.438 9C545.729 7.33333 549.229 5.83333 552.938 4.5C556.646 3.16667 560.583 2.08333 564.75 1.25C568.917 0.416667 573.312 0 577.938 0C583.729 0 588.896 0.708333 593.438 2.125C598.021 3.5 601.896 5.47917 605.062 8.0625C608.229 10.6042 610.646 13.7083 612.312 17.375C614.021 21 614.875 25.0625 614.875 29.5625V88.0625H591.75Z" fill="black"/>
<path d="M459.812 88.0625V2.1875H483V88.0625H459.812Z" fill="black"/>
<path d="M355.312 88.0625V2.1875H378.5V69.25H441.188V88.0625H355.312Z" fill="black"/>
<path d="M250.812 88.0625V2.1875H274V69.25H336.688V88.0625H250.812Z" fill="black"/>
<path d="M201.125 88.0625V79.625C198.167 81.25 194.979 82.6875 191.562 83.9375C188.188 85.1875 184.667 86.25 181 87.125C177.333 88 173.542 88.6458 169.625 89.0625C165.75 89.5208 161.833 89.75 157.875 89.75C153.25 89.75 148.771 89.3125 144.438 88.4375C140.146 87.5625 136.333 86.1458 133 84.1875C129.667 82.2292 126.979 79.6667 124.938 76.5C122.938 73.3333 121.938 69.4583 121.938 64.875C121.938 59.0833 123.521 54.2708 126.688 50.4375C129.854 46.5625 134.688 43.3958 141.188 40.9375C147.688 38.4792 155.896 36.5833 165.812 35.25C175.771 33.9167 187.542 32.875 201.125 32.125V30.3125C201.125 28.8958 200.75 27.5 200 26.125C199.25 24.7083 197.875 23.4792 195.875 22.4375C193.917 21.3542 191.208 20.4792 187.75 19.8125C184.333 19.1458 179.958 18.8125 174.625 18.8125C170.417 18.8125 166.25 19.0417 162.125 19.5C158.042 19.9167 154.083 20.5 150.25 21.25C146.458 22 142.854 22.875 139.438 23.875C136.021 24.875 132.917 25.9167 130.125 27V6.375C133.042 5.625 136.312 4.89583 139.938 4.1875C143.562 3.47917 147.333 2.875 151.25 2.375C155.167 1.83333 159.125 1.41667 163.125 1.125C167.125 0.791667 170.958 0.625 174.625 0.625C181.833 0.625 188.479 1.22917 194.562 2.4375C200.646 3.60417 205.875 5.4375 210.25 7.9375C214.667 10.4375 218.104 13.6042 220.562 17.4375C223.062 21.2708 224.312 25.8333 224.312 31.125V88.0625H201.125ZM201.125 48.875C192.208 49.2083 184.625 49.6875 178.375 50.3125C172.167 50.9375 167 51.6667 162.875 52.5C158.75 53.3333 155.5 54.2292 153.125 55.1875C150.792 56.1458 149.042 57.125 147.875 58.125C146.708 59.125 145.979 60.125 145.688 61.125C145.438 62.125 145.312 63.0417 145.312 63.875C145.312 64.875 145.583 65.8542 146.125 66.8125C146.667 67.7292 147.604 68.5417 148.938 69.25C150.312 69.9583 152.125 70.5208 154.375 70.9375C156.625 71.3542 159.458 71.5625 162.875 71.5625C166.667 71.5625 170.375 71.2708 174 70.6875C177.625 70.1042 181.062 69.3125 184.312 68.3125C187.562 67.2708 190.604 66.0625 193.438 64.6875C196.312 63.2708 198.875 61.7708 201.125 60.1875V48.875Z" fill="black"/>
<path d="M70.4375 88.0625H43.4375L0 2.1875H25.875L57.125 66.8125L88.3125 2.1875H114.188L70.4375 88.0625Z" fill="black"/>
</svg>
